<svg height="512pt" viewBox="0 0 512 512" width="512pt" xmlns="http://www.w3.org/2000/svg"><path d="M256 0C114.84 0 0 114.84 0 256s114.84 256 256 256 256-114.84 256-256S397.16 0 256 0zm-15 125.656c-22.82-.98-45.41-4.187-66.98-9.402 3.445-8.164 7.183-16.004 11.214-23.434 16.54-30.476 36.844-51.863 55.766-59.61zm0 30.024V241h-93.691c1.32-33.3 6.996-66.36 16.382-96.43 24.875 6.266 50.989 10.059 77.309 11.11zM241 271v85.32c-26.32 1.051-52.434 4.844-77.309 11.11-9.386-30.07-15.062-63.13-16.382-96.43zm0 115.344v92.445c-18.922-7.746-39.227-29.133-55.766-59.61-4.03-7.429-7.77-15.269-11.214-23.433 21.57-5.215 44.156-8.422 66.98-9.402zm30 0c22.82.98 45.41 4.187 66.98 9.402-3.445 8.164-7.183 16.004-11.214 23.434-16.54 30.476-36.844 51.863-55.766 59.61zm0-30.024V271h93.691c-1.32 33.3-6.996 66.36-16.382 96.43-24.875-6.266-50.989-10.059-77.309-11.11zM271 241v-85.32c26.32-1.051 52.434-4.844 77.309-11.11 9.386 30.07 15.062 63.13 16.382 96.43zm0-115.344V33.211c18.922 7.746 39.227 29.133 55.766 59.61 4.03 7.429 7.77 15.269 11.214 23.433-21.57 5.215-44.16 8.422-66.98 9.402zm82.133-47.144c-7.512-13.844-15.672-26.047-24.274-36.457 29.993 10.242 57.16 26.629 80.008 47.644-13.031 6.98-27.074 13.043-41.847 18.11-4.192-10.18-8.825-19.973-13.887-29.297zm-194.266 0c-5.062 9.324-9.695 19.117-13.887 29.297-14.773-5.067-28.816-11.133-41.847-18.11 22.847-21.015 50.015-37.402 80.008-47.644-8.602 10.41-16.758 22.61-24.274 36.457zm-24.035 57.492c-10.238 32.754-16.258 68.46-17.555 104.996H30.512c3.21-48.754 21.933-93.34 51.293-128.832 16.293 9.344 34.136 17.336 53.027 23.836zM117.277 271c1.297 36.54 7.317 72.242 17.555 104.996-18.89 6.5-36.734 14.492-53.027 23.836C52.445 364.34 33.723 319.754 30.512 271zm27.703 133.191c4.192 10.18 8.825 19.973 13.887 29.297 7.516 13.844 15.672 26.047 24.274 36.457-29.993-10.242-57.16-26.629-80.004-47.644 13.023-6.977 27.07-13.043 41.843-18.11zm208.153 29.297c5.062-9.324 9.695-19.117 13.887-29.297 14.773 5.067 28.816 11.133 41.847 18.11-22.847 21.015-50.015 37.402-80.008 47.644 8.602-10.41 16.758-22.61 24.274-36.457zm24.035-57.492c10.238-32.754 16.258-68.46 17.555-104.996h86.765c-3.21 48.754-21.933 93.34-51.293 128.832-16.293-9.344-34.136-17.336-53.027-23.836zM394.723 241c-1.297-36.54-7.317-72.242-17.555-104.996 18.89-6.5 36.734-14.492 53.027-23.836 29.36 35.492 48.082 80.078 51.293 128.832zm0 0"/></svg>