<?xml version="1.0" encoding="utf-8"?>
<!-- Generator: Adobe Illustrator 25.2.3, SVG Export Plug-In . SVG Version: 6.00 Build 0)  -->
<svg fill="#fff" version="1.1" id="Слой_1" xmlns="http://www.w3.org/2000/svg" xmlns:xlink="http://www.w3.org/1999/xlink" x="0px" y="0px"
	 width="153px" height="32px" viewBox="0 0 153 32" style="enable-background:new 0 0 153 32;" xml:space="preserve">
<g>
	<path d="M53.8,23.5c-1.5,0-2.7-0.3-3.8-0.8c-1-0.5-1.8-1.3-2.3-2.2c-0.5-1-0.8-2.1-0.9-3.5c0-0.7,0-1.4,0-2.1c0-0.7,0-1.5,0-2.1
		c0.1-1.3,0.4-2.5,0.9-3.5S49,7.6,50,7.1c1-0.5,2.3-0.8,3.7-0.8c1.1,0,2.1,0.1,2.9,0.4s1.6,0.7,2.2,1.2c0.6,0.5,1.1,1.1,1.4,1.8
		c0.3,0.7,0.5,1.4,0.5,2.2c0,0.1,0,0.3-0.1,0.4c-0.1,0.1-0.2,0.1-0.4,0.1H58c-0.2,0-0.3,0-0.4-0.1c-0.1-0.1-0.2-0.2-0.2-0.4
		c-0.3-1-0.7-1.8-1.3-2.1c-0.6-0.4-1.4-0.6-2.3-0.6c-1.1,0-1.9,0.3-2.6,0.9c-0.6,0.6-1,1.6-1,2.9c0,1.3,0,2.6,0,4
		c0,1.4,0.4,2.3,1,2.9c0.6,0.6,1.5,0.9,2.6,0.9c0.9,0,1.7-0.2,2.3-0.6s1.1-1.1,1.3-2.1c0-0.2,0.1-0.4,0.2-0.5
		c0.1-0.1,0.3-0.1,0.4-0.1h2.3c0.1,0,0.3,0,0.4,0.1c0.1,0.1,0.1,0.2,0.1,0.4c0,0.8-0.2,1.5-0.5,2.2c-0.3,0.7-0.8,1.3-1.4,1.8
		c-0.6,0.5-1.3,0.9-2.2,1.2S54.8,23.5,53.8,23.5z"/>
	<path d="M68.8,23.5c-1.3,0-2.3-0.2-3.2-0.7c-0.9-0.4-1.5-1.1-2-1.9c-0.5-0.8-0.7-1.8-0.8-2.8c0-0.3,0-0.6,0-1s0-0.8,0-1
		c0.1-1.1,0.3-2,0.8-2.9c0.5-0.8,1.1-1.4,2-1.9c0.9-0.4,1.9-0.7,3.2-0.7c1.2,0,2.3,0.2,3.2,0.7c0.9,0.4,1.5,1.1,2,1.9
		c0.5,0.8,0.7,1.8,0.8,2.9c0,0.3,0,0.6,0,1s0,0.8,0,1c-0.1,1.1-0.3,2-0.8,2.8c-0.5,0.8-1.1,1.4-2,1.9C71.2,23.3,70.1,23.5,68.8,23.5
		z M68.8,21.1c0.8,0,1.5-0.3,2-0.8c0.5-0.5,0.7-1.3,0.8-2.3c0-0.2,0-0.5,0-0.9c0-0.4,0-0.7,0-0.9c0-1-0.3-1.8-0.8-2.3
		c-0.5-0.5-1.1-0.8-2-0.8c-0.8,0-1.5,0.3-2,0.8c-0.5,0.5-0.7,1.3-0.8,2.3c0,0.2,0,0.5,0,0.9c0,0.4,0,0.7,0,0.9c0,1,0.3,1.8,0.8,2.3
		C67.3,20.9,68,21.1,68.8,21.1z"/>
	<path d="M77.9,8.8c-0.2,0-0.3-0.1-0.4-0.2s-0.2-0.2-0.2-0.4V6.5c0-0.2,0.1-0.3,0.2-0.4C77.6,6,77.8,6,77.9,6h2.2
		c0.2,0,0.3,0.1,0.4,0.2c0.1,0.1,0.2,0.2,0.2,0.4v1.7c0,0.2-0.1,0.3-0.2,0.4s-0.3,0.2-0.4,0.2H77.9z M78,23.3
		c-0.2,0-0.3-0.1-0.4-0.2c-0.1-0.1-0.2-0.2-0.2-0.4V11.4c0-0.2,0.1-0.3,0.2-0.4c0.1-0.1,0.2-0.2,0.4-0.2h2c0.2,0,0.3,0.1,0.4,0.2
		c0.1,0.1,0.2,0.2,0.2,0.4v11.3c0,0.2-0.1,0.3-0.2,0.4c-0.1,0.1-0.2,0.2-0.4,0.2H78z"/>
	<path d="M84.3,23.3c-0.2,0-0.3-0.1-0.4-0.2c-0.1-0.1-0.2-0.2-0.2-0.4V11.4c0-0.2,0.1-0.3,0.2-0.4c0.1-0.1,0.2-0.2,0.4-0.2h2
		c0.2,0,0.3,0.1,0.4,0.2s0.2,0.2,0.2,0.4v1c0.4-0.5,0.9-0.9,1.6-1.3c0.6-0.3,1.4-0.5,2.4-0.5c1,0,1.8,0.2,2.5,0.7
		c0.7,0.4,1.3,1.1,1.7,1.8c0.4,0.8,0.6,1.7,0.6,2.9v6.7c0,0.2-0.1,0.3-0.2,0.4c-0.1,0.1-0.2,0.2-0.4,0.2h-2.1
		c-0.2,0-0.3-0.1-0.4-0.2s-0.2-0.2-0.2-0.4v-6.6c0-0.9-0.2-1.6-0.7-2.2c-0.5-0.5-1.1-0.8-2-0.8c-0.8,0-1.5,0.3-2,0.8
		c-0.5,0.5-0.7,1.2-0.7,2.2v6.6c0,0.2-0.1,0.3-0.2,0.4s-0.2,0.2-0.4,0.2H84.3z"/>
	<path d="M103.2,23.5c-0.8,0-1.6-0.1-2.2-0.4c-0.6-0.3-1.1-0.7-1.6-1.2c-0.4-0.5-0.7-1.1-1-1.8s-0.3-1.5-0.4-2.3c0-0.3,0-0.5,0-0.8
		s0-0.5,0-0.8c0-0.8,0.2-1.5,0.4-2.2c0.2-0.7,0.5-1.3,1-1.8s0.9-0.9,1.6-1.2s1.4-0.4,2.2-0.4c0.9,0,1.6,0.1,2.2,0.4
		c0.6,0.3,1.1,0.7,1.5,1.1V6.9c0-0.2,0.1-0.3,0.2-0.4c0.1-0.1,0.2-0.2,0.4-0.2h2c0.2,0,0.3,0.1,0.4,0.2s0.2,0.2,0.2,0.4v15.8
		c0,0.2-0.1,0.3-0.2,0.4s-0.2,0.2-0.4,0.2h-1.9c-0.2,0-0.3-0.1-0.4-0.2s-0.2-0.2-0.2-0.4v-0.9c-0.4,0.5-0.9,0.9-1.5,1.2
		C104.9,23.3,104.2,23.5,103.2,23.5z M104.1,21c0.7,0,1.2-0.2,1.6-0.5s0.7-0.7,0.9-1.2c0.2-0.5,0.3-1,0.3-1.4c0-0.3,0-0.6,0-0.9
		c0-0.3,0-0.6,0-0.9c0-0.5-0.1-0.9-0.3-1.4c-0.2-0.4-0.5-0.8-0.9-1.1s-0.9-0.4-1.5-0.4c-0.7,0-1.2,0.1-1.6,0.4
		c-0.4,0.3-0.7,0.7-0.8,1.2c-0.2,0.5-0.3,1-0.3,1.6c0,0.5,0,1,0,1.4c0,0.6,0.1,1.1,0.3,1.6c0.2,0.5,0.5,0.9,0.8,1.2
		C102.9,20.8,103.5,21,104.1,21z"/>
	<path d="M118.6,23.5c-1.8,0-3.2-0.5-4.2-1.5c-1-1-1.6-2.5-1.7-4.3c0-0.2,0-0.4,0-0.6c0-0.2,0-0.4,0-0.6c0.1-1.2,0.3-2.2,0.8-3.1
		c0.5-0.9,1.2-1.5,2-2c0.9-0.5,1.9-0.7,3-0.7c1.3,0,2.4,0.3,3.2,0.8s1.5,1.3,2,2.2c0.4,0.9,0.7,2,0.7,3.3v0.5c0,0.2-0.1,0.3-0.2,0.4
		c-0.1,0.1-0.3,0.2-0.4,0.2H116c0,0.1,0,0.2,0,0.2c0,0.6,0.1,1.1,0.3,1.5c0.2,0.5,0.5,0.8,0.9,1.1s0.9,0.4,1.4,0.4
		c0.4,0,0.8-0.1,1.1-0.2c0.3-0.1,0.5-0.3,0.7-0.5c0.2-0.2,0.3-0.3,0.4-0.4c0.1-0.2,0.3-0.3,0.3-0.3c0.1,0,0.2-0.1,0.4-0.1h2.1
		c0.2,0,0.3,0,0.4,0.1c0.1,0.1,0.1,0.2,0.1,0.4c0,0.3-0.1,0.6-0.4,0.9c-0.2,0.4-0.6,0.7-1.1,1.1s-1,0.6-1.7,0.9
		S119.5,23.5,118.6,23.5z M116,16h5.3v-0.1c0-0.6-0.1-1.2-0.3-1.6c-0.2-0.5-0.5-0.8-0.9-1.1c-0.4-0.3-0.9-0.4-1.4-0.4
		c-0.6,0-1,0.1-1.4,0.4c-0.4,0.3-0.7,0.6-0.9,1.1C116.1,14.8,116,15.3,116,16L116,16z"/>
	<path d="M127.6,23.3c-0.2,0-0.3-0.1-0.4-0.2c-0.1-0.1-0.2-0.2-0.2-0.4V6.9c0-0.2,0.1-0.3,0.2-0.4c0.1-0.1,0.2-0.2,0.4-0.2h1.9
		c0.2,0,0.3,0.1,0.4,0.2s0.2,0.2,0.2,0.4v8.2l4-3.8c0.2-0.1,0.3-0.2,0.4-0.3c0.1-0.1,0.3-0.1,0.5-0.1h2.2c0.2,0,0.3,0,0.4,0.1
		c0.1,0.1,0.1,0.2,0.1,0.4c0,0.1,0,0.1,0,0.2c0,0.1-0.1,0.2-0.2,0.2l-4.9,4.6l5.5,5.9c0.2,0.2,0.2,0.3,0.2,0.4
		c0,0.2-0.1,0.3-0.2,0.4c-0.1,0.1-0.2,0.1-0.4,0.1h-2.3c-0.2,0-0.4,0-0.5-0.1c-0.1-0.1-0.2-0.2-0.4-0.3l-4.6-4.8v4.6
		c0,0.2-0.1,0.3-0.2,0.4s-0.2,0.2-0.4,0.2H127.6z"/>
	<path d="M144.6,23.5c-1,0-1.8-0.1-2.4-0.3c-0.7-0.2-1.2-0.5-1.7-0.8c-0.4-0.3-0.7-0.7-1-1s-0.3-0.6-0.3-0.8c0-0.2,0-0.3,0.2-0.4
		c0.1-0.1,0.2-0.2,0.4-0.2h1.9c0.1,0,0.1,0,0.2,0c0,0,0.1,0.1,0.2,0.1c0.2,0.2,0.4,0.4,0.7,0.5c0.2,0.2,0.5,0.4,0.8,0.5
		c0.3,0.1,0.7,0.2,1.2,0.2c0.6,0,1.1-0.1,1.6-0.4s0.6-0.6,0.6-1.1c0-0.3-0.1-0.6-0.3-0.8c-0.2-0.2-0.5-0.4-1-0.6
		c-0.5-0.2-1.2-0.3-2.1-0.5c-0.9-0.2-1.6-0.5-2.2-0.8c-0.6-0.3-1-0.7-1.3-1.2c-0.3-0.5-0.4-1-0.4-1.7c0-0.6,0.2-1.2,0.6-1.8
		c0.4-0.6,0.9-1,1.7-1.4s1.7-0.5,2.8-0.5c0.9,0,1.6,0.1,2.2,0.3c0.6,0.2,1.2,0.5,1.6,0.8c0.4,0.3,0.7,0.6,1,1
		c0.2,0.3,0.3,0.6,0.4,0.8c0,0.2,0,0.3-0.1,0.4s-0.2,0.2-0.4,0.2h-1.8c-0.1,0-0.2,0-0.2,0c-0.1,0-0.1-0.1-0.2-0.1
		c-0.2-0.2-0.4-0.3-0.6-0.5c-0.2-0.2-0.5-0.3-0.8-0.5c-0.3-0.1-0.7-0.2-1.2-0.2c-0.6,0-1.1,0.1-1.4,0.4s-0.5,0.6-0.5,1
		c0,0.3,0.1,0.5,0.2,0.7c0.2,0.2,0.5,0.4,0.9,0.6c0.5,0.2,1.2,0.4,2.1,0.5c1.1,0.2,1.9,0.5,2.5,0.8s1.1,0.8,1.3,1.3
		c0.3,0.5,0.4,1,0.4,1.6c0,0.7-0.2,1.4-0.6,1.9s-1,1-1.9,1.3C146.8,23.3,145.8,23.5,144.6,23.5z"/>
</g>
<g>
	<path d="M6,5.9c4.4-4.3,11.6-5.1,16.9-1.8c1.2,0.7,1.6,2.3,0.9,3.5c-0.7,1.3-2.1,1.8-3.6,0.9c-2.1-1.2-4.2-1.6-6.5-1
		c-4.9,1.2-7.7,6.4-6,11.1c1.7,4.8,7,7,11.6,4.9c0.5-0.2,0.9-0.5,1.4-0.7c1.3-0.5,2.7,0.2,3.2,1.4c0.5,1.1,0,2.6-1,3.3
		c-5.3,3.3-12.7,2.4-17.1-2.1c-4.4-4.5-5.1-11.7-1.7-17C4.7,7.5,5.3,6.7,6,5.9z"/>
	<path d="M13.3,13.4c1.3-1.3,3.2-1.3,4.8,0c2.5,2,4.8,1.9,7.3-0.1c1.4-1.2,3.4-1.1,4.7,0.2c1.2,1.3,1.2,3.4,0,4.7
		c-1.2,1.3-3.3,1.3-4.7,0.2c-2.5-2.1-4.7-2.1-7.4-0.1c-1.7,1.3-3.7,1.1-4.9-0.3C12,16.6,12.1,14.5,13.3,13.4z"/>
</g>
</svg>
